<svg width="71" height="73" viewBox="0 0 71 73" fill="none" xmlns="http://www.w3.org/2000/svg">
<path d="M32.0849 2.73933C27.9328 3.69129 25.7219 4.64326 22.828 6.68318C22.091 7.20774 20.6171 8.56769 19.5745 9.6945C16.4829 13.0555 14.6495 16.4943 13.6968 20.7878C13.2115 22.9832 13.1396 24.1877 13.4811 24.1877C13.6788 24.1877 13.7867 23.8574 13.8766 23.022C14.0923 20.749 15.0449 17.6405 16.1953 15.3869C19.1252 9.61679 24.4097 5.26495 30.4852 3.61358C31.0963 3.45816 32.6242 3.22502 33.8644 3.10846C40.8566 2.46734 47.2735 5.0901 52.0907 10.5688C54.0859 12.8418 55.8834 16.0474 56.7821 18.9033C56.9619 19.4861 57.2135 19.9136 57.3573 19.9136C57.6809 19.9136 57.609 19.4667 57.0338 17.8736C54.6971 11.4042 49.5563 6.06149 43.4988 3.82729C40.9285 2.87532 38.7715 2.52562 35.6439 2.54505C34.0801 2.56448 32.4804 2.64219 32.0849 2.73933Z" fill="#7E57C2"/>
<path d="M44.9186 17.4656C44.5591 17.8542 44.3974 18.2428 44.3974 18.6313C44.3974 19.3113 44.1098 19.5444 39.0409 22.9054C35.446 25.2756 35.7336 25.1591 34.8708 24.5568C33.9361 23.8963 32.9295 23.974 31.186 24.8871L29.9277 25.5476L30.6287 25.6059C31.0062 25.6448 31.7072 25.5282 32.1925 25.3728C33.9001 24.7511 34.5113 25.0231 35.6617 26.9076C36.4525 28.1704 37.3153 28.9281 38.1422 29.0641C38.6095 29.1612 39.1308 28.9669 40.4968 28.287C41.6113 27.7236 42.2404 27.3156 42.2044 27.1601C42.0606 26.7133 41.3956 26.791 40.3351 27.3739C39.7419 27.6847 39.0768 27.9955 38.8252 28.0733C38.3039 28.2093 37.3872 27.8984 37.3872 27.5876C37.3872 27.1796 40.3531 25.8002 41.2338 25.8002C42.2224 25.7808 42.492 26.0139 43.5885 27.7818C44.1817 28.7532 44.5771 29.1612 45.1343 29.4332C46.1409 29.9383 46.5184 29.8606 48.5136 28.8115L50.2391 27.8984L49.4303 27.8207C48.8551 27.7818 48.4057 27.879 47.8125 28.2093C46.6981 28.8309 45.4758 28.8115 44.8647 28.1898C44.4333 27.743 43.8581 26.7522 43.8581 26.4219C43.8581 26.3442 44.2895 26.0333 44.8108 25.7419C45.3141 25.4311 46.6442 24.5762 47.7227 23.838C48.8191 23.0997 50.2751 22.0895 50.9761 21.6232L52.2523 20.7684L52.8095 21.1181C53.3308 21.4289 53.4206 21.4484 53.87 21.1764C55.308 20.3215 54.9305 17.6211 53.3847 17.6211C52.7196 17.6211 52.1804 18.165 52.0186 19.0199C51.9647 19.2919 51.8748 19.6416 51.7849 19.797C51.6591 20.0884 49.0708 21.9146 45.5118 24.2071L43.3189 25.6253L42.4741 25.1397C41.3596 24.4985 40.7125 24.6151 38.3938 25.8779C36.7042 26.791 36.5784 26.8299 36.3627 26.4996C36.2368 26.3053 36.129 26.0916 36.129 26.0139C36.129 25.9556 37.0457 25.2951 38.1601 24.5568C39.2566 23.838 40.9822 22.6723 41.9708 21.9923C42.9594 21.2929 43.966 20.613 44.1996 20.4575C44.5771 20.205 44.6849 20.205 45.2242 20.5158C45.7455 20.8267 45.8713 20.8267 46.2847 20.5935C47.5249 19.8747 47.5789 17.9902 46.3746 17.2325C45.6915 16.7857 45.5298 16.8051 44.9186 17.4656ZM46.3566 18.4176C46.752 19.2142 46.1589 20.0107 45.4579 19.6221C45.1163 19.4084 45.0265 18.9422 45.2242 18.3788C45.368 17.9513 46.1409 17.9902 46.3566 18.4176ZM53.6723 18.6119C53.9958 18.845 54.1396 19.5833 53.9239 20.0107C53.6903 20.477 53.4386 20.4964 52.9893 20.069C52.5938 19.6804 52.5758 19.2724 52.9713 18.8062C53.2948 18.4176 53.3847 18.3982 53.6723 18.6119Z" fill="#7E57C2"/>
<path d="M60.305 18.7479C60.0174 19.0393 59.8557 19.4473 59.8557 19.797C59.8557 20.4575 59.658 20.6324 56.8899 22.478C55.9012 23.1386 54.5352 24.0517 53.8342 24.518L52.5759 25.3534L53.3129 25.4116C54.1397 25.4699 54.4273 25.3145 57.8066 22.9637C59.7658 21.5844 60.2691 21.3706 60.4848 21.7592C60.6106 21.9729 61.2937 22.0118 61.743 21.8369C62.1205 21.6815 62.5519 20.749 62.5519 20.1078C62.5519 19.3696 62.0845 18.5147 61.6172 18.3788C60.9342 18.1845 60.7544 18.2428 60.305 18.7479ZM61.6531 19.5056C62.1205 20.1273 61.5273 21.1958 60.8623 20.9238C60.5747 20.8072 60.4488 19.6416 60.7005 19.3696C60.8982 19.1364 61.4195 19.2142 61.6531 19.5056Z" fill="#7E57C2"/>
<path d="M24.3557 23.8963C23.8703 24.11 23.2592 24.4014 23.0076 24.5568C22.7559 24.6928 21.8392 25.2368 20.9405 25.7419C20.0597 26.247 19.2509 26.7327 19.143 26.8104C18.9992 26.9464 16.8962 28.2675 15.3683 29.2195C14.919 29.4915 14.1281 30.0355 13.2473 30.6572C12.5643 31.1429 12.5463 31.1429 11.9711 30.8126C10.4073 29.8995 9.11313 32.4057 10.4073 33.8239C11.324 34.7953 12.2228 34.4067 12.6362 32.8331C12.8698 31.9588 12.8698 31.9588 16.8063 29.3943C21.983 26.0333 24.4815 24.6539 25.6498 24.5374C26.4587 24.4402 26.6025 24.4985 27.1777 25.0425C28.2202 26.0139 28.8493 25.7225 27.9865 24.6734C26.98 23.43 25.9914 23.2163 24.3557 23.8963ZM11.8633 32.0365C12.1509 32.6194 11.7914 33.4548 11.2881 33.3771C10.7668 33.2993 10.4433 32.4057 10.7848 31.9783C11.0903 31.5508 11.6296 31.5897 11.8633 32.0365Z" fill="#7E57C2"/>
<path d="M1.70751 25.2562C0.521185 26.5967 1.40194 28.559 3.16346 28.559C3.88245 28.559 4.08017 28.4618 4.60144 27.879L5.1946 27.199H11.0723C16.6804 27.199 17.004 27.1796 17.7409 26.791C18.1543 26.5773 18.5498 26.3053 18.6217 26.2082C18.6756 26.111 15.9794 26.0333 11.9351 26.0333H5.15865L4.54751 25.3534C4.02625 24.7705 3.82853 24.6734 3.07359 24.6734C2.3546 24.6734 2.13891 24.7705 1.70751 25.2562ZM3.88245 26.1305C4.15207 26.5773 4.15207 26.655 3.88245 27.1019C3.68473 27.4321 3.41511 27.5876 3.09156 27.5876C2.46245 27.5876 2.15688 27.2573 2.15688 26.5773C2.15688 25.6059 3.37916 25.2951 3.88245 26.1305Z" fill="#7E57C2"/>
<path d="M67.0996 25.3534L66.5963 26.0333H56.2069C47.1477 26.0333 45.7456 26.0722 45.2783 26.3442C43.9841 27.063 44.4694 27.1019 55.7036 27.1601L66.5244 27.199L67.1175 27.879C67.5849 28.423 67.8545 28.559 68.3758 28.559C69.3464 28.559 70.0294 28.0927 70.2811 27.2961C70.7305 25.8002 69.9396 24.6734 68.4117 24.6734C67.6927 24.6734 67.531 24.7511 67.0996 25.3534ZM69.3105 26.1305C69.5801 26.5773 69.5801 26.655 69.3105 27.1019C69.1127 27.4321 68.8431 27.5876 68.5196 27.5876C67.8905 27.5876 67.5849 27.2573 67.5849 26.5773C67.5849 25.6059 68.8072 25.2951 69.3105 26.1305Z" fill="#7E57C2"/>
<path d="M22.5222 26.4802C22.0908 26.6939 21.7493 26.9659 21.7493 27.0436C21.7493 27.1213 24.6612 27.199 28.2202 27.199C35.0505 27.199 35.1943 27.1796 34.3675 26.3636C34.0799 26.0722 33.4148 26.0333 28.6515 26.0528C23.5288 26.0528 23.2412 26.0722 22.5222 26.4802Z" fill="#7E57C2"/>
<path d="M30.7366 27.7624C29.4783 27.8596 29.2806 27.9178 29.5682 28.0927C29.7659 28.2093 30.1434 28.3647 30.395 28.423C30.9523 28.5784 32.7677 28.0344 32.6239 27.7818C32.552 27.6653 32.4621 27.607 32.3902 27.6264C32.3183 27.6458 31.5814 27.7041 30.7366 27.7624Z" fill="#7E57C2"/>
<path d="M23.5469 29.4915C22.1089 30.4435 20.7608 31.3371 20.5451 31.4731C20.2036 31.7063 20.0778 31.6868 19.5205 31.376C18.8914 31.0069 18.8734 31.0069 18.3881 31.3954C17.6871 31.9588 17.3815 32.7165 17.5074 33.5131C17.6332 34.2125 18.3522 34.9702 18.8914 34.9702C19.4486 34.9702 20.1676 34.1348 20.2934 33.3382C20.4013 32.6388 20.5271 32.5028 22.1089 31.4537C23.0436 30.832 24.0142 30.1909 24.2659 30.0549C25.614 29.2389 27.5552 27.9956 27.6451 27.8984C27.699 27.8401 27.3755 27.7818 26.9441 27.7818C26.261 27.7818 25.7757 28.0344 23.5469 29.4915ZM19.3767 32.4834C19.88 33.0274 19.3767 34.1348 18.7476 33.921C18.2983 33.7656 18.1545 33.2799 18.3522 32.6777C18.514 32.2114 19.0352 32.1143 19.3767 32.4834Z" fill="#7E57C2"/>
<path d="M33.7026 28.5978C33.0196 29.0252 31.4198 30.0743 30.1616 30.9097L27.8788 32.4251L27.3396 32.0948C26.6026 31.648 25.9016 31.9394 25.4882 32.8525C24.931 34.057 25.596 35.553 26.7105 35.553C27.4115 35.553 28.0406 34.8147 28.0406 33.9793C28.0406 33.5325 28.2383 33.2994 29.2449 32.6C30.6829 31.5897 33.1634 29.9772 34.5654 29.1224C35.2484 28.7144 35.59 28.3841 35.554 28.1898C35.4641 27.6653 35.0148 27.7624 33.7026 28.5978ZM27.1958 33.2411C27.2857 33.4159 27.3216 33.7851 27.2497 34.0765C27.1598 34.5039 27.052 34.601 26.6386 34.5427C26.2611 34.5039 26.1353 34.3679 26.0993 33.9405C25.9915 32.9691 26.7644 32.4834 27.1958 33.2411Z" fill="#7E57C2"/>
<path d="M57.8245 28.695C57.7526 28.7532 57.6987 29.0835 57.6987 29.4138C57.6987 30.4046 56.8539 33.5325 56.1169 35.3199C55.0924 37.8455 53.5286 40.274 51.5873 42.3527C47.9205 46.2966 43.9301 48.4142 38.6276 49.2496C36.165 49.6188 35.8235 49.6188 32.8038 49.1331C26.0093 48.0645 20.8506 44.5675 17.0579 38.4672C16.2311 37.1072 14.7392 33.7268 14.7392 33.1634C14.7392 32.8137 14.2719 32.5028 14.0741 32.7165C13.9303 32.8719 14.6493 34.9702 15.4222 36.6215C16.4468 38.8557 17.7589 40.7791 19.5744 42.7607C22.8098 46.2577 26.207 48.2588 31.0602 49.4828C32.8217 49.9296 38.2501 49.9685 40.1734 49.5605C44.8648 48.5697 48.5496 46.4132 52.0546 42.6442C55.3979 39.0694 57.1415 35.5918 58.0582 30.7155C58.2559 29.6469 58.4177 28.7338 58.4177 28.6755C58.4177 28.5201 57.9683 28.5201 57.8245 28.695Z" fill="#7E57C2"/>
<path d="M7.61713 59.248C8.06513 59.248 8.48113 59.3333 8.86513 59.504C9.25979 59.6747 9.59579 59.9147 9.87313 60.224C10.1611 60.5227 10.3798 60.8853 10.5291 61.312C10.6891 61.728 10.7691 62.1867 10.7691 62.688C10.7691 63.1573 10.6945 63.5947 10.5451 64C10.4065 64.4053 10.2038 64.7573 9.93713 65.056C9.67046 65.344 9.35579 65.5733 8.99313 65.744C8.63046 65.9147 8.22513 66 7.77713 66H2.81713V63.984H7.20113C7.41446 63.984 7.61713 63.9573 7.80913 63.904C8.01179 63.8507 8.18246 63.7707 8.32113 63.664C8.45979 63.5573 8.57179 63.424 8.65713 63.264C8.74246 63.104 8.78513 62.912 8.78513 62.688C8.78513 62.272 8.64646 61.9467 8.36913 61.712C8.10246 61.4773 7.76646 61.36 7.36113 61.36H6.06512C5.52113 61.36 5.02513 61.3013 4.57713 61.184C4.12913 61.0667 3.75046 60.88 3.44113 60.624C3.13179 60.368 2.89179 60.0373 2.72113 59.632C2.55046 59.2267 2.46513 58.7413 2.46513 58.176C2.46513 57.7813 2.53446 57.3973 2.67313 57.024C2.81179 56.6507 3.00379 56.3253 3.24913 56.048C3.49446 55.76 3.79313 55.5307 4.14513 55.36C4.49713 55.1893 4.88646 55.104 5.31313 55.104H9.80913V57.232H6.14513C5.93179 57.232 5.73446 57.248 5.55313 57.28C5.37179 57.3013 5.21179 57.3493 5.07313 57.424C4.93446 57.488 4.82779 57.5893 4.75313 57.728C4.67846 57.8667 4.64113 58.0533 4.64113 58.288C4.64113 58.5547 4.73179 58.784 4.91313 58.976C5.09446 59.1573 5.33979 59.248 5.64913 59.248H7.61713ZM14.3213 61.04L11.5693 55.104H13.6332L15.3133 58.576H15.4093C15.5373 58.2987 15.6706 58.016 15.8093 57.728C15.9479 57.44 16.0919 57.1467 16.2413 56.848L17.0733 55.104H19.1213L16.2733 61.056V66H14.3213V61.04ZM25.0078 59.248C25.4558 59.248 25.8718 59.3333 26.2558 59.504C26.6504 59.6747 26.9864 59.9147 27.2638 60.224C27.5518 60.5227 27.7704 60.8853 27.9198 61.312C28.0798 61.728 28.1597 62.1867 28.1597 62.688C28.1597 63.1573 28.0851 63.5947 27.9358 64C27.7971 64.4053 27.5944 64.7573 27.3278 65.056C27.0611 65.344 26.7464 65.5733 26.3838 65.744C26.0211 65.9147 25.6158 66 25.1678 66H20.2078V63.984H24.5918C24.8051 63.984 25.0078 63.9573 25.1998 63.904C25.4024 63.8507 25.5731 63.7707 25.7118 63.664C25.8504 63.5573 25.9624 63.424 26.0478 63.264C26.1331 63.104 26.1758 62.912 26.1758 62.688C26.1758 62.272 26.0371 61.9467 25.7598 61.712C25.4931 61.4773 25.1571 61.36 24.7518 61.36H23.4557C22.9118 61.36 22.4158 61.3013 21.9678 61.184C21.5198 61.0667 21.1411 60.88 20.8318 60.624C20.5224 60.368 20.2824 60.0373 20.1118 59.632C19.9411 59.2267 19.8558 58.7413 19.8558 58.176C19.8558 57.7813 19.9251 57.3973 20.0638 57.024C20.2024 56.6507 20.3944 56.3253 20.6398 56.048C20.8851 55.76 21.1838 55.5307 21.5358 55.36C21.8878 55.1893 22.2771 55.104 22.7038 55.104H27.1998V57.232H23.5358C23.3224 57.232 23.1251 57.248 22.9438 57.28C22.7624 57.3013 22.6024 57.3493 22.4638 57.424C22.3251 57.488 22.2184 57.5893 22.1438 57.728C22.0691 57.8667 22.0318 58.0533 22.0318 58.288C22.0318 58.5547 22.1224 58.784 22.3038 58.976C22.4851 59.1573 22.7304 59.248 23.0398 59.248H25.0078ZM31.3279 66H29.4879V55.104H36.9759V56.944H31.2799V59.632H36.9919V61.456H31.3279V66ZM39.98 64.16H45.884V66H38.06V55.104H39.98V64.16ZM51.4161 55.104C51.8428 55.104 52.2481 55.1893 52.6321 55.36C53.0161 55.52 53.3521 55.744 53.6401 56.032C53.9281 56.32 54.1521 56.6613 54.3121 57.056C54.4828 57.44 54.5681 57.8507 54.5681 58.288V62.832C54.5681 63.2693 54.4828 63.68 54.3121 64.064C54.1521 64.448 53.9281 64.784 53.6401 65.072C53.3521 65.36 53.0161 65.5893 52.6321 65.76C52.2481 65.92 51.8428 66 51.4161 66H50.1681C49.7308 66 49.3201 65.92 48.9361 65.76C48.5521 65.5893 48.2161 65.36 47.9281 65.072C47.6508 64.784 47.4268 64.448 47.2561 64.064C47.0855 63.68 47.0001 63.2693 47.0001 62.832V58.288C47.0001 57.8507 47.0855 57.44 47.2561 57.056C47.4268 56.6613 47.6508 56.32 47.9281 56.032C48.2161 55.744 48.5521 55.52 48.9361 55.36C49.3201 55.1893 49.7308 55.104 50.1681 55.104H51.4161ZM52.6161 58.384C52.6161 58 52.5041 57.6747 52.2801 57.408C52.0668 57.1413 51.7735 57.008 51.4001 57.008H50.1841C49.8108 57.008 49.5121 57.1413 49.2881 57.408C49.0748 57.6747 48.9681 58 48.9681 58.384V62.72C48.9681 63.104 49.0748 63.4347 49.2881 63.712C49.5121 63.9787 49.8108 64.112 50.1841 64.112H51.4001C51.7735 64.112 52.0668 63.9787 52.2801 63.712C52.5041 63.4347 52.6161 63.104 52.6161 62.72V58.384ZM64.9293 62.256H65.0413C65.3186 61.0507 65.6013 59.8667 65.8893 58.704C66.1773 57.5307 66.4706 56.3307 66.7693 55.104H68.7213L66.0333 66H63.9533L62.1613 58.992L60.4333 66H58.3373L55.5693 55.104H57.5213L59.3293 62.256H59.4253L59.8573 60.512C60.0706 59.6053 60.2839 58.7093 60.4973 57.824C60.7213 56.928 60.9453 56.0213 61.1693 55.104H63.1213L64.9293 62.256Z" fill="url(#paint0_linear_49_502)"/>
<defs>
<linearGradient id="paint0_linear_49_502" x1="35.5" y1="55" x2="35.5" y2="67" gradientUnits="userSpaceOnUse">
<stop offset="0.35" stop-color="#7E57C2"/>
<stop offset="0.5" stop-color="#F0EEF9"/>
<stop offset="0.65" stop-color="#7E57C2"/>
</linearGradient>
</defs>
</svg>
